# xmcd CD database file
#
# Track frame offsets:
#	150
#	27425
#	49383
#	76949
#	96349
#	126552
#	151810
#	175631
#	199831
#	225117
#	249519
#	279552
#
# Disc length: 3811 seconds
#
# Revision: 0
# Processed by: cddbd v1.5.2PL0 Copyright (c) Steve Scherf et al.
# Submitted via: CDex 1.51
#
DISCID=990ee10c
DTITLE=METRO - Metrocafé
DYEAR=1900
DGENRE=Jazz
TTITLE0=Metrocafé
TTITLE1=It's All Good
TTITLE2=Shadow Play
TTITLE3=Month Of Sundays
TTITLE4=Field Of Diamonds
TTITLE5=Those Who Wait
TTITLE6=One A Day
TTITLE7=House And Home
TTITLE8=People Person
TTITLE9=Q
TTITLE10=Your Name Here
TTITLE11=Bonus Track
EXTD=
EXTT0=
EXTT1=
EXTT2=
EXTT3=
EXTT4=
EXTT5=
EXTT6=
EXTT7=
EXTT8=
EXTT9=
EXTT10=
EXTT11=
PLAYORDER=
